<svg width="23" height="23" viewBox="0 0 23 23" fill="none" xmlns="http://www.w3.org/2000/svg">
<path d="M9.4002 20.6983L9.8101 19.0618C9.99663 18.3165 10.3824 17.6357 10.927 17.0929L17.7215 10.3066C18.1115 9.91644 18.5824 9.61643 19.101 9.42767C19.6196 9.23891 20.1734 9.16599 20.7233 9.21405V6.32517H0V16.9618C0 17.9531 0.394257 18.9038 1.09604 19.6047C1.79782 20.3056 2.74965 20.6994 3.74212 20.6994L9.4002 20.6983ZM3.45426 15.2379C3.45426 14.8567 3.6059 14.491 3.87582 14.2214C4.14573 13.9518 4.51182 13.8004 4.89354 13.8004C5.27526 13.8004 5.64134 13.9518 5.91126 14.2214C6.18117 14.491 6.33281 14.8567 6.33281 15.2379C6.33281 15.6192 6.18117 15.9848 5.91126 16.2544C5.64134 16.524 5.27526 16.6754 4.89354 16.6754C4.51182 16.6754 4.14573 16.524 3.87582 16.2544C3.6059 15.9848 3.45426 15.6192 3.45426 15.2379ZM8.92351 15.2379C8.92351 14.8567 9.07515 14.491 9.34506 14.2214C9.61498 13.9518 9.98107 13.8004 10.3628 13.8004C10.7445 13.8004 11.1106 13.9518 11.3805 14.2214C11.6504 14.491 11.8021 14.8567 11.8021 15.2379C11.8021 15.6192 11.6504 15.9848 11.3805 16.2544C11.1106 16.524 10.7445 16.6754 10.3628 16.6754C9.98107 16.6754 9.61498 16.524 9.34506 16.2544C9.07515 15.9848 8.92351 15.6192 8.92351 15.2379ZM3.45426 10.0628C3.45426 9.68151 3.6059 9.31587 3.87582 9.04628C4.14573 8.77669 4.51182 8.62523 4.89354 8.62523C5.27526 8.62523 5.64134 8.77669 5.91126 9.04628C6.18117 9.31587 6.33281 9.68151 6.33281 10.0628C6.33281 10.444 6.18117 10.8097 5.91126 11.0793C5.64134 11.3489 5.27526 11.5003 4.89354 11.5003C4.51182 11.5003 4.14573 11.3489 3.87582 11.0793C3.6059 10.8097 3.45426 10.444 3.45426 10.0628ZM8.92351 10.0628C8.92351 9.68151 9.07515 9.31587 9.34506 9.04628C9.61498 8.77669 9.98107 8.62523 10.3628 8.62523C10.7445 8.62523 11.1106 8.77669 11.3805 9.04628C11.6504 9.31587 11.8021 9.68151 11.8021 10.0628C11.8021 10.444 11.6504 10.8097 11.3805 11.0793C11.1106 11.3489 10.7445 11.5003 10.3628 11.5003C9.98107 11.5003 9.61498 11.3489 9.34506 11.0793C9.07515 10.8097 8.92351 10.444 8.92351 10.0628ZM14.3928 10.0628C14.3928 9.68151 14.5444 9.31587 14.8143 9.04628C15.0842 8.77669 15.4503 8.62523 15.832 8.62523C16.2138 8.62523 16.5798 8.77669 16.8498 9.04628C17.1197 9.31587 17.2713 9.68151 17.2713 10.0628C17.2713 10.444 17.1197 10.8097 16.8498 11.0793C16.5798 11.3489 16.2138 11.5003 15.832 11.5003C15.4503 11.5003 15.0842 11.3489 14.8143 11.0793C14.5444 10.8097 14.3928 10.444 14.3928 10.0628ZM16.9823 0C17.9748 0 18.9266 0.393782 19.6284 1.09472C20.3302 1.79565 20.7244 2.74633 20.7244 3.7376V4.60012H0V3.7376C0 2.74633 0.394257 1.79565 1.09604 1.09472C1.79782 0.393782 2.74965 0 3.74212 0H16.9823ZM11.741 17.906L18.5356 11.1196C19.0316 10.6392 19.697 10.3729 20.3879 10.3782C21.0789 10.3834 21.7401 10.6599 22.2288 11.1478C22.7175 11.6357 22.9944 12.296 22.9999 12.9862C23.0054 13.6763 22.739 14.3409 22.2581 14.8365L15.4624 21.624C15.0655 22.0191 14.569 22.2996 14.0255 22.436L11.9184 22.9627C11.7086 23.0151 11.4888 23.0123 11.2805 22.9546C11.0721 22.8969 10.8823 22.7863 10.7294 22.6335C10.5766 22.4808 10.466 22.2911 10.4084 22.0829C10.3508 21.8748 10.3482 21.6552 10.4008 21.4458L10.927 19.3412C11.0628 18.7984 11.3438 18.3027 11.741 17.906Z" fill="#B3B4B9"/>
<path d="M7.31818 15C7.31818 16.1046 6.38205 17 5.22727 17C4.0725 17 3.13636 16.1046 3.13636 15C3.13636 13.8954 4.0725 13 5.22727 13C6.38205 13 7.31818 13.8954 7.31818 15Z" fill="#B3B4B9"/>
</svg>
