<svg width="24" height="24" viewBox="0 0 24 24" fill="none" xmlns="http://www.w3.org/2000/svg">
<path d="M12 1C18.0753 1 23 5.9247 23 12C23 18.0753 18.0753 23 12 23C5.9247 23 1 18.0753 1 12C1 5.9247 5.9247 1 12 1ZM8.7946 13.5389L8.6846 13.5433C8.58659 13.5547 8.49182 13.5855 8.40574 13.6337C8.31966 13.6819 8.24397 13.7467 8.18303 13.8243C8.12209 13.9019 8.07711 13.9908 8.05067 14.0859C8.02424 14.1809 8.01687 14.2803 8.029 14.3782C8.1475 15.3455 8.61498 16.2362 9.34368 16.8833C10.0724 17.5303 11.0122 17.8892 11.9867 17.8924C12.9612 17.8956 13.9034 17.5431 14.6364 16.9009C15.3694 16.2587 15.8428 15.3711 15.9677 14.4046C15.9844 14.2116 15.9258 14.0196 15.8041 13.8688C15.6824 13.718 15.5072 13.6202 15.315 13.5957C15.1228 13.5713 14.9286 13.6221 14.773 13.7376C14.6175 13.8531 14.5127 14.0243 14.4805 14.2154C14.4032 14.82 14.1076 15.3755 13.6495 15.7775C13.1914 16.1795 12.6022 16.4003 11.9927 16.3984C11.3831 16.3965 10.7953 16.1721 10.3397 15.7672C9.88405 15.3624 9.59199 14.805 9.5184 14.2C9.50696 14.102 9.47624 14.0072 9.42802 13.9211C9.37979 13.8351 9.31501 13.7594 9.2374 13.6984C9.1598 13.6375 9.07091 13.5925 8.97584 13.5661C8.88078 13.5396 8.78142 13.5323 8.6835 13.5444L8.7946 13.5389ZM7.3954 7.9069C6.98843 7.9069 6.59812 8.06857 6.31034 8.35634C6.02257 8.64412 5.8609 9.03442 5.8609 9.4414C5.8609 9.84837 6.02257 10.2387 6.31034 10.5265C6.59812 10.8142 6.98843 10.9759 7.3954 10.9759C7.80237 10.9759 8.19268 10.8142 8.48046 10.5265C8.76823 10.2387 8.9299 9.84837 8.9299 9.4414C8.9299 9.03442 8.76823 8.64412 8.48046 8.35634C8.19268 8.06857 7.80237 7.9069 7.3954 7.9069ZM16.6046 7.9069C16.1976 7.9069 15.8073 8.06857 15.5195 8.35634C15.2318 8.64412 15.0701 9.03442 15.0701 9.4414C15.0701 9.84837 15.2318 10.2387 15.5195 10.5265C15.8073 10.8142 16.1976 10.9759 16.6046 10.9759C17.0116 10.9759 17.4019 10.8142 17.6897 10.5265C17.9774 10.2387 18.1391 9.84837 18.1391 9.4414C18.1391 9.03442 17.9774 8.64412 17.6897 8.35634C17.4019 8.06857 17.0116 7.9069 16.6046 7.9069Z" fill="#B3B4B9"/>
</svg>
